<svg xmlns="http://www.w3.org/2000/svg" width="28.305" height="28.305" viewBox="0 0 28.305 28.305">
  <g id="Icon_feather-instagram" data-name="Icon feather-instagram" transform="translate(1.5 1.5)" opacity="0.648">
    <path id="Path_3670" data-name="Path 3670" d="M9.326,3H21.979A6.326,6.326,0,0,1,28.3,9.326V21.979A6.326,6.326,0,0,1,21.979,28.3H9.326A6.326,6.326,0,0,1,3,21.979V9.326A6.326,6.326,0,0,1,9.326,3Z" transform="translate(-3 -3)" fill="none" stroke="#fdf1da" stroke-linecap="round" stroke-linejoin="round" stroke-width="3"/>
    <path id="Path_3671" data-name="Path 3671" d="M22.132,16.254a5.061,5.061,0,1,1-4.264-4.264,5.061,5.061,0,0,1,4.264,4.264Z" transform="translate(-4.419 -4.398)" fill="none" stroke="#fdf1da" stroke-linecap="round" stroke-linejoin="round" stroke-width="3"/>
    <path id="Path_3672" data-name="Path 3672" d="M26.25,9.75h0" transform="translate(-6.639 -4.056)" fill="none" stroke="#fdf1da" stroke-linecap="round" stroke-linejoin="round" stroke-width="3"/>
  </g>
</svg>
