<svg xmlns="http://www.w3.org/2000/svg" width="20.51" height="15.822" viewBox="0 0 20.51 15.822">
  <g id="hamburger_1_" data-name="hamburger (1)" transform="translate(-3.225 -5.225)">
    <path id="Path_6" data-name="Path 6" d="M3.225,6.1A.879.879,0,0,1,4.1,5.225H22.856a.879.879,0,0,1,0,1.758H4.1A.879.879,0,0,1,3.225,6.1Z" transform="translate(0 0)" fill="#3f2d3b"/>
    <path id="Path_7" data-name="Path 7" d="M3.225,12.1a.879.879,0,0,1,.879-.879H22.856a.879.879,0,0,1,0,1.758H4.1a.879.879,0,0,1-.879-.879Z" transform="translate(0 1.032)" fill="#3f2d3b"/>
    <path id="Path_8" data-name="Path 8" d="M3.225,18.1a.879.879,0,0,1,.879-.879H22.856a.879.879,0,0,1,0,1.758H4.1a.879.879,0,0,1-.879-.879Z" transform="translate(0 2.064)" fill="#3f2d3b"/>
  </g>
</svg>
