<svg xmlns="http://www.w3.org/2000/svg" width="16.738" height="18.758" viewBox="0 0 16.738 18.758">
  <g id="shopping-bag_3_" data-name="shopping-bag (3)" transform="translate(0 0)">
    <path id="Path_5" data-name="Path 5" d="M24.255,35.758H34.483A3.259,3.259,0,0,0,37.738,32.5V22.772a.579.579,0,0,0-.577-.577H33.7v-.866a4.329,4.329,0,1,0-8.658,0v.866H21.577a.579.579,0,0,0-.577.577V32.5A3.259,3.259,0,0,0,24.255,35.758Zm1.939-14.429a3.174,3.174,0,1,1,6.349,0v.866H26.195Zm-4.04,2.02H25.04v1.443a.577.577,0,1,0,1.154,0V23.349h6.349v1.443a.577.577,0,0,0,1.154,0V23.349h2.886V32.5a2.1,2.1,0,0,1-2.1,2.1H24.255a2.1,2.1,0,0,1-2.1-2.1Z" transform="translate(-21.001 -17)" fill="#3f2d3b"/>
  </g>
</svg>
